<svg width="6" height="10" viewBox="0 0 6 10" fill="none" xmlns="http://www.w3.org/2000/svg">
    <path d="M5.58426 0.960613C5.63159 0.913679 5.6582 0.84979 5.6582 0.78314C5.6582 0.716491 5.63159 0.652602 5.58426 0.605667L5.05435 0.0757478C5.00899 0.0274165 4.94565 0 4.87937 0C4.81309 0 4.74976 0.0274165 4.7044 0.0757478L0.110096 4.67005C0.0397604 4.7403 0.000200523 4.8356 0.00011301 4.93501V5.06499C0.000200523 5.1644 0.0397604 5.2597 0.110096 5.32995L4.7044 9.92425C4.74976 9.97258 4.81309 10 4.87937 10C4.94565 10 5.00899 9.97258 5.05435 9.92425L5.58426 9.39433C5.63159 9.3474 5.6582 9.28351 5.6582 9.21686C5.6582 9.15021 5.63159 9.08632 5.58426 9.03939L1.54488 5L5.58426 0.960613Z"
          fill="currentColor"/>
</svg>