<svg width="28" height="15" viewBox="0 0 28 15" fill="none" xmlns="http://www.w3.org/2000/svg">
<path d="M1.416 7.83771L2.85982 9.28154C8.81145 15.2332 18.4939 15.2332 24.4455 9.28154L25.8838 7.83771L24.44 6.39389C18.4884 0.442265 8.80594 0.442265 2.85431 6.39389L1.416 7.83771V7.83771ZM13.6499 14.7923C9.47274 14.7923 5.29558 13.1997 2.11587 10.02L0.302826 8.20694C0.0989278 8.00304 0.0989278 7.67239 0.302826 7.46298L2.11587 5.64994C8.47529 -0.709485 18.8245 -0.709485 25.1839 5.64994L26.997 7.46298C27.2009 7.66688 27.2009 7.99753 26.997 8.20694L25.1839 10.02C22.0042 13.1997 17.8271 14.7923 13.6499 14.7923V14.7923Z" fill="#707070" stroke="#707070" stroke-width="0.3"/>
<path d="M13.65 3.84246C11.4457 3.84246 9.65471 5.63345 9.65471 7.83776C9.65471 10.0421 11.4457 11.8331 13.65 11.8331C15.8543 11.8331 17.6453 10.0421 17.6453 7.83776C17.6453 5.63345 15.8543 3.84246 13.65 3.84246ZM13.65 12.8801C10.8671 12.8801 8.60767 10.6152 8.60767 7.83776C8.60767 5.05482 10.8726 2.79541 13.65 2.79541C16.4274 2.79541 18.6924 5.06033 18.6924 7.83776C18.6924 10.6207 16.4329 12.8801 13.65 12.8801Z" fill="#707070" stroke="#707070" stroke-width="0.3"/>
<line x1="0.912852" y1="14.4401" x2="26.9129" y2="0.440136" stroke="#707070"/>
</svg>
