<svg width="28" height="15" viewBox="0 0 28 15" fill="none" xmlns="http://www.w3.org/2000/svg">
    <path d="M1.416 7.10724L2.85982 8.55107C8.81145 14.5027 18.4939 14.5027 24.4455 8.55107L25.8838 7.10724L24.44 5.66342C18.4884 -0.288203 8.80594 -0.288203 2.85431 5.66342L1.416 7.10724ZM13.6499 14.0618C9.47274 14.0618 5.29558 12.4692 2.11587 9.28951L0.302826 7.47647C0.0989278 7.27257 0.0989278 6.94192 0.302826 6.73251L2.11587 4.91947C8.47529 -1.43995 18.8245 -1.43995 25.1839 4.91947L26.997 6.73251C27.2009 6.93641 27.2009 7.26706 26.997 7.47647L25.1839 9.28951C22.0042 12.4692 17.8271 14.0618 13.6499 14.0618Z"
          fill="#707070" stroke="#707070" stroke-width="0.3"/>
    <path d="M13.65 3.11199C11.4457 3.11199 9.65471 4.90299 9.65471 7.10729C9.65471 9.3116 11.4457 11.1026 13.65 11.1026C15.8543 11.1026 17.6453 9.3116 17.6453 7.10729C17.6453 4.90299 15.8543 3.11199 13.65 3.11199ZM13.65 12.1496C10.8671 12.1496 8.60767 9.88472 8.60767 7.10729C8.60767 4.32436 10.8726 2.06494 13.65 2.06494C16.4274 2.06494 18.6924 4.32987 18.6924 7.10729C18.6924 9.89023 16.4329 12.1496 13.65 12.1496Z"
          fill="#707070" stroke="#707070" stroke-width="0.3"/>
</svg>